<svg xmlns="http://www.w3.org/2000/svg" viewBox="0 0 800 800" width="800" height="800" role="img" aria-label="Wendejacke Punkte und Streifen Platzhalterbild">
  <rect width="800" height="800" fill="#FAF7F2"/>
  <g transform="translate(400 380)">
    <path d="M-180 -140 L-70 -180 L0 -160 L70 -180 L180 -140 L200 60 L120 200 L60 200 L60 -80 L-60 -80 L-60 200 L-120 200 L-200 60 Z" fill="#C4704A" opacity="0.55"/>
    <g fill="#7A3318" opacity="0.7">
      <circle cx="-120" cy="-60" r="12"/>
      <circle cx="-70" cy="-20" r="12"/>
      <circle cx="-30" cy="-80" r="12"/>
      <circle cx="30" cy="-50" r="12"/>
      <circle cx="80" cy="-90" r="12"/>
      <circle cx="130" cy="-20" r="12"/>
      <circle cx="-140" cy="60" r="12"/>
      <circle cx="-90" cy="100" r="12"/>
      <circle cx="90" cy="80" r="12"/>
      <circle cx="140" cy="140" r="12"/>
    </g>
  </g>
  <text x="400" y="560" text-anchor="middle" font-family="Georgia, 'Times New Roman', serif" font-size="34" fill="#2C2417">Wendejacke</text>
  <text x="400" y="600" text-anchor="middle" font-family="Georgia, 'Times New Roman', serif" font-size="22" fill="#6B5E4E" font-style="italic">Punkte &amp; Streifen</text>
  <text x="400" y="770" text-anchor="middle" font-family="Georgia, serif" font-size="14" fill="#6B5A40" letter-spacing="3">BILULU · HANDGEMACHT</text>
</svg>
